<?xml version="1.0" encoding="utf-8"?>
<!-- Generator: Adobe Illustrator 21.0.0, SVG Export Plug-In . SVG Version: 6.00 Build 0)  -->
<svg version="1.1" id="Capa_1" xmlns="http://www.w3.org/2000/svg" xmlns:xlink="http://www.w3.org/1999/xlink" x="0px" y="0px"
	 viewBox="0 0 512 512" style="enable-background:new 0 0 512 512;" xml:space="preserve">
<style type="text/css">
	.st0{opacity:0.4;fill:#36C488;}
	.st1{opacity:0.6;fill:#36C488;}
	.st2{opacity:0.6;fill:#055903;}
	.st3{opacity:0.3;fill:#055903;}
	.st4{fill:#2A6652;}
	.st5{opacity:0.85;fill:#FF825C;}
	.st6{fill:#FF825C;}
	.st7{fill:#1C4234;}
</style>
<path class="st0" d="M512,256c0,141.4-114.6,256-256,256S0,397.4,0,256S114.6,0,256,0S512,114.6,512,256z"/>
<path class="st1" d="M176,333v62c0,2.8-2.2,5-5,5H61c-2.8,0-5-2.2-5-5v-62c0-2.8,2.2-5,5-5h110C173.8,328,176,330.2,176,333z
	 M171,240H61c-2.8,0-5,2.2-5,5v62c0,2.8,2.2,5,5,5h110c2.8,0,5-2.2,5-5v-62C176,242.2,173.8,240,171,240z M307,328H197
	c-2.8,0-5,2.2-5,5v62c0,2.8,2.2,5,5,5h110c2.8,0,5-2.2,5-5v-62C312,330.2,309.8,328,307,328z M307,240H197c-2.8,0-5,2.2-5,5v62
	c0,2.8,2.2,5,5,5h110c2.8,0,5-2.2,5-5v-62C312,242.2,309.8,240,307,240z M451,328H341c-2.8,0-5,2.2-5,5v62c0,2.8,2.2,5,5,5h110
	c2.8,0,5-2.2,5-5v-62C456,330.2,453.8,328,451,328z M451,240H341c-2.8,0-5,2.2-5,5v62c0,2.8,2.2,5,5,5h110c2.8,0,5-2.2,5-5v-62
	C456,242.2,453.8,240,451,240z"/>
<path class="st2" d="M452.6,420c-47,56.2-117.6,92-196.6,92s-149.6-35.8-196.6-92H452.6z"/>
<path class="st3" d="M400,447.5c0,5.5-4.5,10-10,10H290c-5.5,0-10-4.5-10-10s4.5-10,10-10h100C395.5,437.5,400,442,400,447.5z
	 M200,437.5H75.5c7.1,7.1,14.7,13.8,22.6,20H200c5.5,0,10-4.5,10-10S205.5,437.5,200,437.5z"/>
<path class="st4" d="M487,77.5H225c0,0,0,0,0,0h-92.1l-8.1-32.4c-1.2-4.8-5.8-8-10.6-7.5c-0.3,0-0.6,0-0.9,0H34.8
	c-5.4,0-9.8,4.5-9.8,10s4.4,10,9.8,10h72.4l8,32.1l39.3,207.5l-19.1,57.2c-1.7,5.2,1.1,10.9,6.3,12.6c1,0.4,2.1,0.5,3.2,0.5
	c4.2,0,8.1-2.6,9.5-6.8l17.7-53l316.1-40.3c5-0.6,8.7-4.9,8.7-9.9v-59.9c0,0,0,0,0,0l0-110.1C497,82,492.5,77.5,487,77.5z
	 M137.1,97.5H216l5,47.8l-74.5,2.2L137.1,97.5z M150.3,167.3l72.8-2.1l4.8,45.7l-68.2,6.2L150.3,167.3z M173.1,287.4l-9.6-50.6
	l66.5-6l5,47.8c0,0.3,0.1,0.6,0.1,0.9L173.1,287.4z M236.1,97.5H315c0,0.2,0,0.4,0,0.6l2.6,44.3l-76.6,2.3L236.1,97.5z M243.2,164.6
	l75.6-2.2l2.4,40.1l-73.3,6.6L243.2,164.6z M255,277c0-0.2,0-0.3,0-0.5l-5-47.5l72.4-6.5L325,268L255,277z M335,97.5h70v42.3
	l-67.4,2L335,97.5z M338.8,161.8l66.2-1.9v35l-63.9,5.8L338.8,161.8z M344.9,265.5l-2.6-44.9l62.7-5.7v42.6c0,0.1,0,0.2,0,0.4
	L344.9,265.5z M477,248.7l-52,6.6v-42.2l52-4.7V248.7z M477,188.4l-52,4.7v-33.8l52-1.5V188.4z M477,137.7l-52,1.5V97.5h52V137.7z"
	/>
<path class="st5" d="M445,345v20c0,2.8-2.2,5-5,5H140c-2.8,0-5-2.2-5-5v-20c0-2.8,2.2-5,5-5h300C442.8,340,445,342.2,445,345z"/>
<path class="st6" d="M78.8,30H36.3c-10.4,0-18.8,8.4-18.8,18.8l0,0c0,10.4,8.4,18.8,18.8,18.8h42.5c10.4,0,18.8-8.4,18.8-18.8l0,0
	C97.5,38.4,89.1,30,78.8,30z"/>
<path class="st6" d="M405,342.5v70c0,2.8-2.2,5-5,5h-20c-2.8,0-5-2.2-5-5v-70c0-2.8,2.2-5,5-5h20C402.8,337.5,405,339.7,405,342.5z
	 M210,337.5h-20c-2.8,0-5,2.2-5,5v70c0,2.8,2.2,5,5,5h20c2.8,0,5-2.2,5-5v-70C215,339.7,212.8,337.5,210,337.5z"/>
<path class="st7" d="M425,422.5c0,19.3-15.7,35-35,35s-35-15.7-35-35s15.7-35,35-35S425,403.2,425,422.5z M200,387.5
	c-19.3,0-35,15.7-35,35s15.7,35,35,35s35-15.7,35-35S219.3,387.5,200,387.5z"/>
<path class="st5" d="M410,422.5c0,11-9,20-20,20s-20-9-20-20s9-20,20-20C401,402.5,410,411.5,410,422.5z M200,402.5
	c-11,0-20,9-20,20s9,20,20,20s20-9,20-20S211,402.5,200,402.5z"/>
</svg>
